<?xml version="1.0" encoding="UTF-8"?>
<!DOCTYPE svg PUBLIC "-//W3C//DTD SVG 1.1//EN" "http://www.w3.org/Graphics/SVG/1.1/DTD/svg11.dtd">
<!-- Creator: CorelDRAW 2018 (64-Bit) -->
<svg xmlns="http://www.w3.org/2000/svg" xml:space="preserve" width="10.4865in" height="5.20291in" version="1.1" style="shape-rendering:geometricPrecision; text-rendering:geometricPrecision; image-rendering:optimizeQuality; fill-rule:evenodd; clip-rule:evenodd"
viewBox="0 0 10486.49 5202.91"
 xmlns:xlink="http://www.w3.org/1999/xlink">
 <defs>
  <style type="text/css">
   <![CDATA[
    .fil0 {fill:#373435;fill-rule:nonzero}
   ]]>
  </style>
 </defs>
 <g id="Layer_x0020_1">
  <metadata id="CorelCorpID_0Corel-Layer"/>
  <g id="_946188256">
   <g>
    <path class="fil0" d="M4103.43 809.34l212.5 0 0 234.92 -212.5 0 0 -234.92zm212.5 469.84l0 1250.96 -212.5 0 0 -1250.96 212.5 0z"/>
    <path class="fil0" d="M6383.2 2530.14l-212.5 0 0 -1554.5 -502.48 1087.35 -36.35 -78.32 0.44 -0.95 -363.94 -784.13 -79.74 -171.81 0 -0.01 -101.02 -218.42 232.8 0 427.28 924.72 423.02 -915.47 0 -9.24 212.5 0 0 1720.8zm-851.84 -170.96l-79 170.96 -71.61 0 -732.21 -1577.59 0 1577.59 -66.98 0 0 -1720.8 233.67 0 519.96 1125.32 159.89 346.03 36.27 78.49z"/>
    <path class="fil0" d="M3623.14 0.01l3289.91 -0.01 0 3339.46 -3339.45 0c-0.2,-1113.15 -0.2,-2226.31 0,-3339.46l49.54 0.01zm3190.8 99.11l-3141.24 0 0 3141.24 3141.24 0 0 -3141.24z"/>
   </g>
   <polygon class="fil0" points="106.21,4402.48 106.21,5194.15 -0,5194.15 -0,4402.48 "/>
   <polygon class="fil0" points="1683.64,4377.3 1683.64,5194.15 1578.52,5194.15 1578.52,4681.7 1287.26,5094.5 1285.07,5094.5 999.28,4695.94 999.28,5194.15 896.36,5194.15 896.36,4377.3 897.45,4377.3 1287.26,4929.17 1682.54,4377.3 "/>
   <path class="fil0" d="M2988.44 4402.48l0 50.92 0 50.92 -367.33 0 -41.1 0 -106.2 0 0 -101.84 514.64 0zm-408.43 342.72l41.1 0 367.33 0 0 101.84 -345.13 0 -63.3 0 -106.2 0 0 -101.84 106.2 0zm0 346.02l63.3 0 345.13 0 0 102.92 -514.64 0 0 -102.92 106.2 0z"/>
   <polygon class="fil0" points="4200.15,5194.15 3994.3,4877.7 3805.96,5194.15 3674.56,5194.15 3935.17,4785.72 3685.51,4402.48 3820.19,4402.48 4017.29,4704.7 4196.86,4402.48 4324.97,4402.48 4074.22,4793.39 4335.92,5194.15 "/>
   <path class="fil0" d="M5262.94 4402.48c86.14,0 153.48,21.54 202.02,64.61 48.54,43.07 72.81,103.29 72.81,180.67 0,44.53 -8.94,86.14 -26.82,124.83 -17.89,38.69 -46.72,70.08 -86.5,94.17 -39.78,24.09 -89.97,36.13 -150.56,36.13l-117.16 0 0 291.26 -106.21 0 0 -791.66 212.43 0zm10.95 397.47c37.96,0 68.8,-8.03 92.52,-24.09 23.72,-16.06 40.7,-35.59 50.92,-58.58 10.22,-22.99 15.33,-45.44 15.33,-67.34 0,-37.96 -12.41,-71.72 -37.23,-101.29 -24.82,-29.56 -63.51,-44.34 -116.07,-44.34l-122.64 0 0 295.64 117.16 0z"/>
   <path class="fil0" d="M6700.22 5194.15l-186.14 -292.35c-5.84,0.73 -14.6,1.09 -26.28,1.09l-117.16 0 0 291.26 -106.21 0 0 -791.66 211.33 0c54.02,0 102.19,9.49 144.53,28.47 42.34,18.98 75.56,46.9 99.64,83.76 24.09,36.86 36.14,81.21 36.14,133.04 0,48.91 -10.77,93.8 -32.3,134.68 -21.54,40.88 -54.57,71.91 -99.09,93.07l199.28 318.63 -123.73 0zm-214.61 -394.19c56.94,0 98,-14.96 123.19,-44.89 25.19,-29.93 37.78,-64.24 37.78,-102.93 0,-23.36 -5.29,-46.35 -15.88,-68.98 -10.58,-22.63 -27.37,-41.43 -50.37,-56.39 -23,-14.96 -52.01,-22.44 -87.05,-22.44l-122.64 0 0 295.64 114.97 0z"/>
   <path class="fil0" d="M9236.44 4543.74c-28.47,-15.33 -58.76,-27.74 -90.88,-37.23 -32.12,-9.49 -62.41,-14.24 -90.88,-14.24 -43.07,0 -77.2,9.67 -102.38,29.02 -25.18,19.35 -37.78,45.81 -37.78,79.39 0,32.85 14.78,59.68 44.35,80.48 29.56,20.8 71.72,41.43 126.47,61.87 40.88,14.6 75.37,30.48 103.47,47.63 28.11,17.15 51.46,40.88 70.08,71.17 18.61,30.3 27.92,68.8 27.92,115.52 0,42.34 -10.58,80.66 -31.75,114.97 -21.17,34.31 -51.28,61.31 -90.33,81.03 -39.06,19.71 -84.86,29.56 -137.42,29.56 -48.91,0 -95.99,-7.85 -141.25,-23.54 -45.26,-15.69 -85.04,-35.58 -119.35,-59.67l47.08 -84.31c27.01,20.44 59.49,37.78 97.45,52.01 37.96,14.24 73.36,21.35 106.21,21.35 42.34,0 79.38,-10.94 111.14,-32.85 31.75,-21.9 47.63,-54.39 47.63,-97.45 0,-36.5 -13.32,-65.52 -39.97,-87.05 -26.64,-21.54 -64.05,-41.79 -112.23,-60.77 -44.53,-16.79 -81.57,-33.22 -111.14,-49.28 -29.57,-16.06 -54.93,-38.14 -76.1,-66.24 -21.17,-28.11 -31.75,-63.33 -31.75,-105.67 0,-62.05 21.72,-112.23 65.15,-150.56 43.43,-38.33 99.83,-58.58 169.17,-60.77 85.41,0 164.61,21.17 237.61,63.51l-40.51 82.12z"/>
   <path class="fil0" d="M10436.12 4543.74c-28.47,-15.33 -58.76,-27.74 -90.88,-37.23 -32.12,-9.49 -62.41,-14.24 -90.88,-14.24 -43.07,0 -77.2,9.67 -102.38,29.02 -25.19,19.35 -37.78,45.81 -37.78,79.39 0,32.85 14.78,59.68 44.35,80.48 29.56,20.8 71.72,41.43 126.47,61.87 40.88,14.6 75.37,30.48 103.47,47.63 28.11,17.15 51.46,40.88 70.08,71.17 18.61,30.3 27.92,68.8 27.92,115.52 0,42.34 -10.58,80.66 -31.75,114.97 -21.17,34.31 -51.28,61.31 -90.33,81.03 -39.06,19.71 -84.86,29.56 -137.42,29.56 -48.91,0 -95.99,-7.85 -141.25,-23.54 -45.26,-15.69 -85.04,-35.58 -119.35,-59.67l47.08 -84.31c27.01,20.44 59.49,37.78 97.45,52.01 37.96,14.24 73.36,21.35 106.21,21.35 42.34,0 79.38,-10.94 111.14,-32.85 31.75,-21.9 47.63,-54.39 47.63,-97.45 0,-36.5 -13.32,-65.52 -39.96,-87.05 -26.65,-21.54 -64.06,-41.79 -112.24,-60.77 -44.53,-16.79 -81.57,-33.22 -111.14,-49.28 -29.56,-16.06 -54.93,-38.14 -76.1,-66.24 -21.17,-28.11 -31.75,-63.33 -31.75,-105.67 0,-62.05 21.72,-112.23 65.15,-150.56 43.43,-38.33 99.83,-58.58 169.17,-60.77 85.41,0 164.61,21.17 237.61,63.51l-40.51 82.12z"/>
   <path class="fil0" d="M8071.82 4402.48l0 50.92 0 50.92 -367.33 0 -41.1 0 -106.2 0 0 -101.84 514.64 0zm-408.43 342.72l41.1 0 367.33 0 0 101.84 -345.13 0 -63.3 0 -106.2 0 0 -101.84 106.2 0zm0 346.02l63.3 0 345.13 0 0 102.92 -514.64 0 0 -102.92 106.2 0z"/>
  </g>
 </g>
</svg>
