<?xml version="1.0" encoding="UTF-8"?>


<svg version="1.1" viewBox="100 50 500 550" xmlns="http://www.w3.org/2000/svg" >

<g fill="none" stroke-width="10px" stroke="green" stroke-dasharray="5000" >
<path d="m123.13 310.05c1.5454 2.7236 2.643 5.6655 3.7957 8.5677 3.8667 9.7267 7.3342 19.597 10.46 29.584 5.0271 16.436 8.0889 33.366 10.714 50.323 2.8205 19.341 4.3517 38.832 5.6043 58.327 1.0697 18.054 1.4405 36.139 1.5339 54.222 0.021 13.038-0.23044 26.075-0.69693 39.104-0.11513 6.7138-0.83104 13.421-0.69828 20.139-1.4729-1.5813 0.26116 1.6002 0.41911 1.2053 0.12363-0.30913 0.40537-1.1386 0.10588-0.99319-5.04 2.4474-9.7337 5.561-14.731 8.0949-0.64804 0.3286 1.1112-0.93882 1.6271-1.4504 0.74325-0.73706 1.4311-1.528 2.1466-2.2919 10.255-11.31 20.288-22.819 30.37-34.283 17.72-20.431 35.565-40.751 53.723-60.795 18.071-19.849 36.853-39.055 56.547-57.3 4.0548-3.7562 8.184-7.4312 12.276-11.147 22.914-20.557 47.021-39.704 71.506-58.339 17.769-13.231 35.872-26.063 54.775-37.637 3.6307-2.2231 7.3183-4.3518 10.978-6.5277 24.401-14.67 49.819-27.503 75.342-40.072 16.069-7.8836 32.28-15.479 48.794-22.386 11.562-4.7534 23.403-8.7671 35.27-12.678l-13.098 10.167c-11.766 3.855-23.497 7.8438-34.942 12.587-16.282 6.841-32.302 14.28-48.177 22.017-9.8887 4.8416-19.761 9.7073-29.549 14.752-11.177 5.7608-10.34 5.3819-21.513 11.431-0.63508 0.3292 1.1952-0.78627 1.7928-1.1794-3.6726 2.1673-7.3738 4.2867-11.018 6.5018-19.045 11.577-37.286 24.429-55.204 37.667-24.707 18.662-49.049 37.828-72.151 58.465-4.0942 3.7063-8.2276 7.3699-12.283 11.119-19.605 18.125-38.263 37.249-56.189 57.03-17.834 19.812-35.321 39.928-52.549 60.269-9.5235 11.102-18.99 22.252-28.387 33.46-6.4706 7.8113-4.4432 5.8592-20.02 13.59-0.73844 0.36648-1.6963-1.3055-1.8152-1.7315-0.1244-0.44563-0.0798-0.92188-0.11964-1.3828 0.29756-6.8911 1.2785-13.742 1.5488-20.637 0.77785-13.123 1.293-26.262 1.4652-39.407 0.1586-18.116-0.0571-36.239-1.097-54.33-1.1976-19.442-2.7167-38.879-5.6173-58.153-2.6902-16.797-5.8892-33.558-11.251-49.74-3.3272-9.8064-6.9817-19.502-11.384-28.884-1.2744-2.6903-2.4686-5.4806-4.2351-7.8948 0 0 15.932-9.3842 15.932-9.3842z"/>
<path d="m175.36 392.35c-1.1784 3.7644-2.4755 7.4891-3.6696 11.249-2.8573 8.6675-5.1816 17.49-7.2402 26.377-2.532 11.126-3.9586 22.445-4.7127 33.817-0.5281 9.578-0.16619 19.159 0.86813 28.686 0.60842 4.3786 1.4177 8.7834 3.0698 12.906 0.94824 2.3664 1.2844 2.7619 2.5535 4.9372 3.1548 4.7575 6.5755 7.4364 11.689 9.8162 3.6055 1.3833 7.5403 1.8663 11.077-0.0133 0.72236-0.38396 1.365-0.90203 2.0475-1.353-21.264 12.374-13.613 8.776-8.6886 2.5077 2.512-3.1979 4.4878-6.6559 6.4511-10.203 4.8842-9.3204 7.5461-19.516 9.7831-29.732 2.2877-10.731 3.2434-21.665 3.6281-32.61 0.24538-8.799-0.14504-17.592-1.0706-26.342-0.67331-5.852-1.7802-11.641-3.2641-17.339-0.897-3.3158-2.0786-6.5505-3.7983-9.5286-1.1998-1.9822-2.9181-3.3273-5.0421-4.1788-2.332-0.80107-4.6056-0.2085-6.8168 0.65043-5.5915 2.7271-13.972 7.6623 11.151-6.554 0.53827-0.3046-1.0576 0.64226-1.5721 0.98543-1.3745 0.91674-1.8207 1.3066-3.1291 2.3304-3.5909 2.8736-6.421 6.4845-8.9321 10.302-3.1255 5.1467-5.1947 10.823-7.0465 16.525-1.8739 5.935-3.0981 12.038-4.13 18.166-1.1183 6.4461-1.5724 12.965-1.7214 19.496-0.13622 6.1127 0.37402 12.198 1.3647 18.224 0.84332 4.8394 2.4606 9.4771 4.291 14.018 1.4582 3.5152 3.3368 6.8267 5.4045 10.014 1.4374 2.1225 3.0457 4.149 5.0647 5.7431 2.0678 1.3093 3.3244 1.4216 5.4359 0.17517-27.114 14.994-15.843 10.628-11.819 5.5925 1.6054-2.0089 2.8186-4.2726 4.0555-6.514 3.4847-6.5418 6.1609-13.466 8.7303-20.405 3.4306-9.1434 5.6652-18.659 7.8808-28.151 2.0815-9.561 4.1081-19.135 5.9791-28.739 1.3789-6.8888 2.7528-13.78 4.3891-20.613 1.0025-4.4801 2.6063-8.77 4.5681-12.909 1.5039-3.0179 3.2347-5.9164 5.1336-8.7008 4.856-6.8169 10.895-8.3132 19.672-12.681 0.33554-0.16699 0.71143 0.23613 1.0672 0.3542 3.5814 2.5642 4.8887 7.0518 6.1497 11.06 2.2254 8.629 3.1062 17.535 4.0219 26.378 0.9035 9.3157 1.6318 18.648 2.1898 27.991 0.19672 2.9611 0.2453 5.9284 0.25279 8.895 3e-3 1.0369-0.13234 2.2273 0.0929 3.258-5.5254 2.4974-10.851 5.4961-16.576 7.492-0.55655 0.19401 0.0879-1.1756 0.14052-1.7626 0.0827-0.92153 0.17386-1.8423 0.2654-2.763 0.4944-4.9724 1.048-9.9387 1.5839-14.907 1.4896-14.876 3.7622-29.649 6.3969-44.36 2.0724-10.988 4.3588-21.957 7.6053-32.665 3.8804-10.85 5.6063-10.06 20.278-16.843 0.9134-0.42225 3.1386 2.6408 3.2956 2.8266 0.44975 0.85264 0.96345 1.6745 1.3492 2.5579 0.99833 2.2861 1.7025 4.8745 2.2714 7.284 1.1671 4.9428 1.8735 9.9584 2.5677 14.983 1.1932 9.3278 1.4945 18.729 1.608 28.121 0.0112 0.96585 0.0199 1.9317 0.0335 2.8976 0.01 0.70048 0.0187 1.401 0.037 2.1013 0.0108 0.41208 0.01 0.82539 0.0502 1.2356 0.0134 0.13618 0.23267 0.33548 0.10974 0.39556-17.074 8.3439-16.673 13.644-16.48 5.8481 0.25685-8.4492 1.1823-16.848 2.3187-25.217 1.4635-10.075 3.5983-20.035 6.0684-29.906 1.5268-5.3139 2.672-10.917 5.6165-15.674 4.8154-5.4108 2.6053-3.1338 17.601-9.455 0.47467-0.2001 0.81883 0.63369 1.1658 1.0144 1.4004 1.5364 2.0369 3.4899 2.7396 5.3962 1.7407 5.6199 2.7472 11.425 3.6796 17.223 0.80785 4.763 1.239 9.577 1.8959 14.36 1.2621 6.8651 5.3524 0.77551-15.914 8.5964-0.49413 0.18172 0.14019-1.0439 0.18804-1.5682 0.15025-1.6464 0.2209-3.4856 0.302-5.1193 0.39741-10.466 0.55729-20.939 0.73516-31.41 0.26637-16.829 0.31177-33.661 0.31474-50.492 4e-3 -15.584-0.047-31.168-0.1891-46.752-0.0984-9.1148-0.23651-18.229-0.45087-27.342-0.0555-2.0085-0.0971-4.0177-0.18481-6.0252-0.0242-0.55332 0.0117-1.3418-0.16964-1.8988 5.4725-2.5044 10.784-5.3955 16.417-7.5132 0.42598-0.16014-0.0409 0.90925-0.0599 1.3639-0.0283 0.67612-0.0532 1.3524-0.0819 2.0285-0.15262 3.5984-0.30337 7.196-0.43262 10.795-0.44822 13.813-0.62529 27.632-0.7736 41.451-0.17241 17.559-0.18983 35.118-0.20981 52.678-0.0267 15.406 0.19795 30.816 0.81801 46.21 0.42035 10.352 1.2011 20.685 1.843 31.024 0.36824 5.2846 0.42758 10.578 0.19119 15.869-0.45063 8.2919-0.11531 3.849-16.673 10.755-0.35449 0.14785-0.13542-0.75782-0.15961-1.1412-0.0345-0.54716-0.0108-1.0965-0.0162-1.6447 0.0578-7.5347 0.87327-15.032 1.7548-22.506 1.3583-11.096 3.6895-22.031 6.2387-32.904 2.4023-10.708 5.8001-21.135 9.7418-31.364 2.8207-7.0107 6.3879-13.684 10.582-19.962 1.848-2.3491 3.6541-5.1062 6.3331-6.6232 17.192-9.735 10.695-9.2274 19.019-9.5227 4.1728 0.38292 7.754 2.4838 11.053 4.9196 3.8075 3.0565 5.6738 6.7191 7.3264 11.205 1.738 5.5219 1.9107 11.32 1.7474 17.056-0.32106 6.0668-1.5292 12.03-3.1568 17.868-1.7045 5.864-4.4654 11.304-7.5772 16.528-3.0138 4.8179-6.5735 9.2557-10.265 13.564-3.113 3.6287-6.4531 7.0467-9.8449 10.412-2.6371 2.5913-5.2673 5.1899-7.9235 7.7617-6.2295 5.8341-13.849 10.251-21.727 13.465-1.591 0.61194-3.1939 0.9022-4.8743 0.59189-1.3203-0.32194-2.3481-1.072-3.1088-2.1781-1.0528-1.9833-0.20058-3.1876 1.2224-4.6259 2.8118-2.3526 5.7983-4.4884 8.7322-6.6847 4.3487-3.0572 8.0393-6.8488 11.595-10.768 4.7238-5.3096 9.0584-10.945 13.321-16.626 4.9133-6.4088 9.6538-12.939 14.219-19.599 4.9582-7.2583 9.4629-14.803 13.676-22.513 3.8662-7.0744 7.2946-14.365 10.258-21.86 2.3421-6.0687 4.1545-12.318 5.6044-18.654 0.97472-4.198 1.4286-8.4544 1.179-12.753-0.29478-2.5276-0.48024-5.2648-2.0708-7.3546-0.58079-0.47334-1.1834-0.53583-1.888-0.25768-0.46435 0.18329-3.0449 1.8353-1.7026 1.0842 4.8411-2.7088 9.6427-5.4876 14.464-8.2314-3.4424 2.3657-5.6099 5.9417-7.564 9.538-3.0327 6.0475-4.7378 12.613-6.2224 19.178-1.699 7.7711-2.8057 15.651-3.7818 23.54-0.77742 6.4599-1.1909 12.955-1.1986 19.461 0.0519 4.2255 0.40914 8.4465 1.4706 12.543 0.95626 2.7579 1.9985 4.2954 4.9472 4.8486 1.861 0.11913 3.5058-0.66054 5.097-1.5322 0.51475-0.28198 2.0367-1.1678 1.5273-0.87619-4.6041 2.6356-9.2076 5.2721-13.811 7.9082 3.9242-2.3338 7.0341-5.6006 9.7909-9.1879 3.6939-5.3427 6.5775-11.182 9.3315-17.048 3.2571-7.2169 6.2645-14.544 9.2435-21.88 3.3422-8.2611 6.7632-16.49 10.304-24.668 2.3085-4.6424 3.8763-10.024 7.6902-13.717 5.6255-2.9711 11.043-6.3743 16.877-8.9133 0.50715-0.22075 0.94106 0.59753 1.3341 0.98672 2.2243 2.2028 2.977 5.5504 3.7813 8.4394 1.6919 7.2025 2.4512 14.582 3.272 21.923 0.62302 5.9468 1.2079 11.898 1.9063 17.836 0.25279 1.0175 0.32147 4.8227 1.214 5.5399 0.055 0.0442 0.13911-0.0234 0.20866-0.0351 1.854-6.363 6.3522-3.895-14.587 7.4782-0.37294 0.20256 0.60182-0.60415 0.84718-0.95043 0.85687-1.2093 1.3562-2.4499 1.992-3.7935 3.5259-8.6931 5.7465-17.852 7.9206-26.956 3.7529-16.216 6.1216-32.702 8.5987-49.148 2.9911-20.732 5.8249-41.486 8.7646-62.225 2.3038-16.861 5.0035-33.663 7.6413-50.473 1.2836-8.0909 2.5234-16.189 3.8274-24.276 0.04-6.672-0.18054-1.8771 16.55-8.3282 0.44413-0.17125-0.15224 0.93997-0.24588 1.4067-0.56239 2.803-1.2507 5.5867-1.8901 8.3723-2.5961 11.71-5.2344 23.41-7.8365 35.118-3.9228 17.344-6.9356 34.872-9.5423 52.456-2.5957 18.251-4.5672 36.579-6.247 54.934-1.1769 14.061-1.9021 28.154-2.3532 42.255-0.18836 8.1951-0.17212 16.394-0.0823 24.59 0.27346 1.487-0.26833 4.5373 0.57379 5.9123 0.0284 0.0464 0.1451-0.0327 0.13836-0.0867-0.0497-0.39879-0.1966-0.77933-0.2949-1.169-5.0248 2.8897-9.9128 6.0316-15.074 8.669-0.4502 0.23004 0.52361-0.86899 0.72043-1.3347 0.28731-0.67977 0.51892-1.3831 0.72746-2.091 1.0065-3.4165 1.4742-6.9268 1.9736-10.442 1.4424-12.501 0.37081-25.08-0.76366-37.555-1.4389-13.204-3.0976-26.375-3.9306-39.635-0.21184-7.1059-0.0854-14.45 2.8584-21.073 2.1172-4.7637 3.5666-6.0829 6.8025-10.26 10.406-11.212 23.512-19.339 36.384-27.389 13.256-8.1949 26.805-15.897 40.298-23.691-4.1093 2.3658-16.43 9.4748-12.328 7.0973 5.8484-3.3894 11.711-6.7541 17.566-10.133 10.198-5.885-18.628 11.011-9.8838 5.6446 0.42819-0.26277 0.85131-0.53371 1.277-0.80056 0.35271-0.2291 0.70541-0.4582 1.0581-0.6873l16.957-6.6106c-0.37322 0.24191-0.74644 0.48381-1.1197 0.72572-1.0408 0.67582-1.8211 1.199-2.9084 1.8307-5.7075 3.3158-11.427 6.6112-17.144 9.9098-15.91 9.179 52.739-30.557-7.108 4.0575-6.6211 3.7722-4.9147 2.8103 8.1836-4.7761 1.3594-0.78737-2.717 1.5779-4.0752 2.3674-5.1349 2.9852-4.3719 2.527-9.6983 5.7028-1.8918 1.128-3.7798 2.2623-5.6697 3.3935-12.829 7.8847-25.878 15.839-36.389 26.769-3.0876 3.8176-4.6396 5.2556-6.745 9.6272-3.081 6.3974-3.3533 13.584-3.2978 20.542 0.57413 13.303 2.0267 26.527 3.557 39.75 1.232 12.448 2.5044 24.964 1.6909 37.486-0.32705 3.5072-0.66058 6.9911-1.3401 10.452-0.14245 0.72545-0.31524 1.4447-0.48836 2.1635-0.12736 0.52875 0.0289 1.2614-0.41296 1.5785-5.1623 3.7042-10.714 6.8331-16.071 10.25-0.35291-0.25906-0.74701-0.4698-1.0587-0.7772-1.5555-1.5338-0.61331-5.5027-0.79361-7.3764 0.28783-8.3423 0.48988-16.688 0.83748-25.028 0.70385-14.251 1.7229-28.485 3.0274-42.694 1.8483-18.399 3.859-36.784 6.407-55.102 2.5274-17.508 5.3884-34.97 8.9703-52.296 2.3791-11.52 4.7782-23.039 6.8475-34.62 0.47048-2.6629 0.98756-5.3205 1.3446-8.0017 0.0481-0.36122-0.19011-0.90496 0.12619-1.0859 5.3811-3.0784 10.985-5.753 16.562-8.461 0.22593-0.10971-0.28186 0.41577-0.42279 0.62365-2.3296 8.132-3.4627 16.559-5.1773 24.828-3.063 16.902-5.9928 33.83-8.4581 50.831-3.0726 20.705-5.9809 41.435-8.7026 62.189-2.1736 16.312-4.2288 32.662-7.5589 48.789-1.9179 9.0131-3.9545 18.026-6.8388 26.788-0.13379 0.35862-1.799 4.9629-2.1638 5.2043-5.2957 3.5039-10.759 6.7539-16.264 9.9191-0.25189 0.14484-0.5942 0.0262-0.86902-0.0681-0.29718-0.10203-0.53115-0.33583-0.79672-0.50374-1.6638-1.9107-1.4962-4.6268-1.7342-7.0172-0.45048-6.0152-0.87691-12.033-1.4781-18.036-0.7561-7.2167-1.5274-14.472-3.382-21.506-0.65243-2.0857-1.2179-4.3469-2.574-6.1236-0.24286-0.31819-0.51963-0.63169-0.8666-0.8313-0.20689-0.11902-0.91438 0.0496-0.7119-0.0768 4.8142-3.005 9.7811-5.7579 14.672-8.6368-0.435 0.19941-0.91688 0.31831-1.305 0.59823-1.1007 0.79389-2.0586 2.2135-2.7536 3.308-1.8551 2.9215-3.2655 6.0961-4.7541 9.2098-3.6399 8.127-7.0948 16.335-10.348 24.625-2.9094 7.3305-5.8691 14.644-9.019 21.875-2.6847 5.8984-5.5046 11.751-8.9478 17.252-2.5679 3.7679-5.5297 7.1922-9.3373 9.7698-5.6926 3.3003-11.364 6.6374-17.078 9.901-2.3309 1.3314-4.9444 2.0644-7.5906 1.3638-3.3243-1.3372-4.6556-3.1307-5.792-6.5092-1.0828-4.2788-1.4223-8.6791-1.4222-13.088 0.0742-6.6136 0.57472-13.213 1.3633-19.779 1.0251-7.929 2.1384-15.853 3.7392-23.69 1.3693-6.6153 2.9121-13.239 5.6865-19.431 1.7856-3.7295 3.7862-7.417 6.9006-10.221 5.5726-3.2643 11.1-6.6078 16.718-9.7929 1.7818-1.0101 3.8694-0.13953 5.0844 1.266 1.629 2.4961 2.0832 5.4105 2.3424 8.3418 0.2842 4.4992-0.12022 8.9517-1.1976 13.34-1.5166 6.4521-3.3914 12.814-5.7533 19.011-2.9771 7.5766-6.3867 14.962-10.29 22.111-4.2062 7.7559-8.7054 15.343-13.62 22.675-4.4958 6.6648-9.1174 13.237-14.034 19.601-4.2073 5.6883-8.4868 11.329-13.1 16.697-3.4439 3.9562-6.9255 7.9066-11.211 10.989-2.8258 2.1576-5.689 4.2659-8.4991 6.4442-0.34739 0.26218-1.9857 1.3555-2.2472 1.6634-0.14184 0.16705-0.0523 0.30417-2e-3 0.47179 0.51335 0.66944 1.3741 0.83172 2.1783 0.8392 1.4824-0.11427 2.8904-0.60457 4.2214-1.257 5.8865-3.1211 1.2369-0.67108-13.71 8.0242-0.34888 0.20295 0.70637-0.39187 1.0459-0.6101 1.1921-0.76625 2.2987-1.6682 3.3452-2.6203 2.7443-2.547 5.3844-5.204 8.0883-7.7936 3.436-3.3507 6.8556-6.7204 10.017-10.336 3.7549-4.2282 7.3544-8.6031 10.474-13.329 3.1803-5.0618 5.987-10.369 7.7737-16.098 1.7151-5.6896 2.9327-11.532 3.3379-17.472 0.24461-5.4988 0.0985-11.073-1.5438-16.375-1.5186-4.0549-3.3674-7.5535-6.8914-10.231-3.0809-2.1559-6.4645-4.0344-10.354-3.7493-6.8176 1.6586-1.7147 0.57961 12.261-7.8178 0.55781-0.33516-1.1787 0.56188-1.7211 0.9215-2.0448 1.3558-3.6317 3.2801-5.1647 5.1586-4.469 6.1673-8.2205 12.822-11.241 19.818-4.1418 10.156-7.6864 20.546-10.107 31.258-2.5124 10.763-4.8244 21.586-6.0419 32.585-0.78074 7.2494-1.5413 14.551-1.0432 21.85 0.033 0.47351 0.0609 0.94741 0.0991 1.4205 0.0182 0.22509 0.26427 0.55898 0.0698 0.67384-21.952 12.968-16.73 14.178-15.641 6.319 0.61246-5.3093 0.76161-10.651 0.55532-15.993-0.35673-10.46-0.96395-20.911-1.2207-31.375-0.36426-15.507-0.34609-31.021-0.31155-46.531 0.0532-17.539 0.11821-35.079 0.0859-52.619-0.0293-13.652-0.0845-27.305-0.22875-40.956-0.0411-3.4882-0.0559-6.98-0.16231-10.467-0.0198-0.64787-0.0549-1.2952-0.0843-1.9427-0.0197-0.43302-0.42758-1.0646-0.0629-1.2989 5.2776-3.3902 10.942-6.1362 16.413-9.2043-0.17216 0.64575-0.15075 1.4116-0.17999 2.0643-0.0928 2.0724-0.13963 4.1466-0.1994 6.2201-0.23101 9.2742-0.38526 18.55-0.50034 27.826-0.16906 15.665-0.24972 31.33-0.2873 46.996-0.0433 16.758-0.0474 33.517 0.11922 50.275 0.10587 10.301 0.21645 20.601 0.32641 30.902 0.0252 2.2749 0.0333 2.8738 0.0521 5.0124 5e-3 0.53167 0.45381 1.2985 0.0125 1.595-14.582 9.7995-16.125 15.598-16.567 7.9002-0.24391-4.8442-0.65324-9.6761-1.441-14.467-0.89126-5.6599-1.8647-11.335-3.7101-16.777-0.52221-1.2783-0.83543-2.291-1.6303-3.4084-0.22761-0.31995-0.48859-0.62953-0.80964-0.85557-0.18902-0.13309-0.86499-0.0635-0.66836-0.18504 13.42-8.2968 20.708-10.427 13.942-8.3652-0.36219 0.36083-0.7787 0.67434-1.0866 1.0825-0.8055 1.0678-1.6766 2.969-2.169 4.1378-1.3844 3.2859-2.4052 6.7114-3.4136 10.126-2.6943 9.8082-4.995 19.734-6.3841 29.82-1.0475 8.1171-1.9233 16.294-1.5279 24.492 0.79815 7.7265 0.62968 1.4422-16.238 10.483-0.10898 0.0584 0.21219-0.15941 0.24486-0.27866 0.11661-0.42568 0.14464-0.87134 0.19045-1.3103 0.17826-1.7083 0.23854-3.4429 0.32601-5.1551 0.28872-9.3838 0.16371-18.788-1.0576-28.113-0.71924-4.9144-1.474-9.7967-2.7776-14.599-0.59371-2.1872-1.3789-4.6754-2.4103-6.7276-0.36573-0.72765-0.85797-1.3845-1.287-2.0767-0.40663-0.34796-0.73379-0.81999-1.2199-1.0439-0.3066-0.14122-0.67503 0.0104-1.0126 0.0156 4.6881-2.8598 9.3762-5.7195 14.064-8.5793 0.58044-0.33431-1.0807 0.81584-1.4968 1.3408-1.2597 1.5895-2.0026 3.6875-2.791 5.5011-3.7801 10.692-6.317 21.768-8.568 32.872-2.7584 14.566-5.1038 29.222-6.0848 44.031-0.32868 4.8103-0.67037 9.6143-0.77599 14.436-0.0189 0.8613-0.0298 1.7229-0.0229 2.5844 4e-3 0.50507 0.48411 1.2469 0.0556 1.5142-5.287 3.2987-11.012 5.8378-16.518 8.7566 0.10064-0.0441 0.25985-0.0308 0.3019-0.13235 0.18449-0.44533 0.38082-2.7154 0.39401-2.8773 0.24367-2.9891 0.30678-5.9926 0.22335-8.99-0.29076-9.3608-0.98162-18.704-1.9009-28.023-0.93681-8.6616-1.8617-17.397-4.3401-25.781-0.83987-2.3904-2.4277-7.4136-4.8407-8.7886-0.21444-0.1222-0.47927-0.11823-0.7189-0.17734-6.2078 1.8441-0.374 0.16744 14.299-8.4765 0.27381-0.16131-0.60331 0.21288-0.87627 0.37563-1.0544 0.62863-1.8057 1.6545-2.5806 2.5729-2.0274 2.6807-3.7916 5.5446-5.395 8.4978-2.1052 4.0323-3.8315 8.244-4.9474 12.664-1.8328 6.859-3.3721 13.791-4.8443 20.735-1.989 9.6374-4.1008 19.248-6.1432 28.875-2.1763 9.49-4.2802 19.028-7.5421 28.219-2.4557 6.9327-5.0159 13.85-8.2653 20.458-1.1531 2.2908-2.3058 4.5769-3.7106 6.7281-0.18785 0.28765-1.856 2.7175-2.2867 2.983-5.5112 3.3976-11.208 6.4853-16.811 9.7279-2.783 0.53473-4.3175-0.0534-6.5507-1.7378-2.0399-1.8322-3.7459-3.9816-5.2093-6.2993-2.063-3.3237-3.9652-6.7505-5.4296-10.386-1.8423-4.6822-3.4728-9.4605-4.3372-14.433-1.0036-6.1438-1.4742-12.353-1.3717-18.582 0.1001-6.593 0.47524-13.178 1.5484-19.694 0.9944-6.2068 2.1856-12.387 4.0353-18.405 1.7982-5.7768 3.7941-11.525 6.694-16.856 2.3652-3.958 5.0855-7.704 8.5566-10.778 7.2721-6.1912 15.707-11.176 24.616-14.605 2.6055-0.65005 5.1816-0.79441 7.6731 0.39858 2.3193 1.2215 4.2481 2.8824 5.5714 5.1821 1.7375 3.1679 2.9165 6.5863 3.78 10.091 1.3967 5.8468 2.4319 11.773 3.0222 17.758 0.83262 8.8832 1.1341 17.804 0.84041 26.725-0.43355 11.053-1.3988 22.09-3.637 32.941-2.1142 10.267-4.6233 20.523-9.2257 30.002-1.8449 3.5978-3.7156 7.093-6.0672 10.393-0.44679 0.627-3.2996 4.4464-4.0809 4.9689-5.6327 3.7671-11.54 7.1058-17.311 10.659-0.76824 0.36632-1.5042 0.80975-2.3047 1.099-3.9434 1.4247-8.1188 0.47431-11.832-1.1366-2.0167-1.0425-2.7121-1.3104-4.5757-2.6481-3.0393-2.1815-5.5494-4.9883-7.5955-8.1058-1.3186-2.3078-1.6898-2.7627-2.6655-5.2658-1.6699-4.2843-2.445-8.857-3.0096-13.398-0.906-9.6944-1.1059-19.429-0.57812-29.156 0.75054-11.417 2.1244-22.789 4.4763-33.996 1.9302-8.808 4.1005-17.56 6.6316-26.217 1.0041-3.6173 2.1318-7.2036 3.0196-10.85l16.641-7.9716z"/>
</g>
</svg>
